<svg width="133" height="48" viewBox="0 0 133 48" fill="none" xmlns="http://www.w3.org/2000/svg">
<g clip-path="url(#clip0_26_10)">
<path fill-rule="evenodd" clip-rule="evenodd" d="M108.923 3.69231H24C12.7844 3.69231 3.69231 12.7844 3.69231 24C3.69231 35.2156 12.7844 44.3077 24 44.3077H108.923C120.139 44.3077 129.231 35.2156 129.231 24C129.231 12.7844 120.139 3.69231 108.923 3.69231ZM24 0C10.7452 0 0 10.7452 0 24C0 37.2548 10.7452 48 24 48H108.923C122.178 48 132.923 37.2548 132.923 24C132.923 10.7452 122.178 0 108.923 0H24Z" fill="#312E81"/>
<path d="M61.0777 33.1162C59.9169 33.1162 58.8765 32.919 57.9567 32.5248C57.0587 32.1306 56.336 31.5502 55.7885 30.7837C55.2628 30.0171 55 29.0862 55 27.9912C55 26.8742 55.2628 25.9543 55.7885 25.2316C56.336 24.4869 57.0697 23.9284 57.9895 23.5561C58.9314 23.1838 59.9935 22.9976 61.1763 22.9976H66.1041V21.9463C66.1041 21.0045 65.8194 20.2489 65.25 19.6795C64.6806 19.11 63.8045 18.8253 62.6217 18.8253C61.461 18.8253 60.574 19.0991 59.9607 19.6466C59.3475 20.1942 58.9423 20.906 58.7452 21.782L55.5913 20.7636C55.8541 19.8875 56.2703 19.0991 56.8397 18.3982C57.4311 17.6755 58.2086 17.0951 59.1723 16.657C60.1359 16.219 61.2967 16 62.6546 16C64.7572 16 66.4108 16.5366 67.6153 17.6098C68.8199 18.683 69.4222 20.2051 69.4222 22.1763V28.8453C69.4222 29.5024 69.7289 29.8309 70.3421 29.8309H71.7219V32.6562H69.1923C68.4257 32.6562 67.8015 32.4592 67.3196 32.0649C66.8378 31.6707 66.597 31.1341 66.597 30.4552V30.3566H66.1041C65.9289 30.6851 65.6661 31.0684 65.3156 31.5064C64.9652 31.9445 64.4505 32.3277 63.7716 32.6562C63.0927 32.9629 62.1947 33.1162 61.0777 33.1162ZM61.5704 30.3237C62.9284 30.3237 64.0234 29.9405 64.8558 29.1738C65.688 28.3854 66.1041 27.3123 66.1041 25.9543V25.6258H61.3734C60.4754 25.6258 59.7526 25.8229 59.2051 26.2171C58.6576 26.5895 58.3838 27.148 58.3838 27.8926C58.3838 28.6373 58.6685 29.2287 59.2379 29.6667C59.8074 30.1047 60.5849 30.3237 61.5704 30.3237Z" fill="#312E81"/>
<path d="M81.1647 33.1162C79.6097 33.1162 78.197 32.7877 76.9267 32.1306C75.6784 31.4736 74.6818 30.5208 73.9372 29.2724C73.2144 28.0241 72.853 26.5238 72.853 24.7716V24.3445C72.853 22.5924 73.2144 21.1031 73.9372 19.8766C74.6818 18.6282 75.6784 17.6755 76.9267 17.0184C78.197 16.3395 79.6097 16 81.1647 16C82.7197 16 84.0448 16.2847 85.1398 16.8542C86.2349 17.4236 87.111 18.1792 87.7681 19.121C88.447 20.0628 88.885 21.1031 89.0822 22.242L85.7969 22.9319C85.6874 22.2091 85.4574 21.5521 85.1069 20.9607C84.7565 20.3694 84.2638 19.8985 83.6286 19.5481C82.9935 19.1976 82.1941 19.0224 81.2304 19.0224C80.2886 19.0224 79.4345 19.2414 78.6679 19.6795C77.9232 20.0956 77.3319 20.7089 76.8939 21.5192C76.4558 22.3077 76.2368 23.2714 76.2368 24.4102V24.706C76.2368 25.8449 76.4558 26.8194 76.8939 27.6298C77.3319 28.4402 77.9232 29.0534 78.6679 29.4695C79.4345 29.8857 80.2886 30.0938 81.2304 30.0938C82.654 30.0938 83.7381 29.7324 84.4828 29.0096C85.2274 28.265 85.6984 27.3232 85.8954 26.1843L89.1807 26.9399C88.9179 28.0569 88.447 29.0862 87.7681 30.0281C87.111 30.9698 86.2349 31.7254 85.1398 32.2949C84.0448 32.8424 82.7197 33.1162 81.1647 33.1162Z" fill="#312E81"/>
<path d="M92.0979 32.656V16.4597H95.4161V18.3652H95.9417C96.2045 17.6862 96.6206 17.1934 97.19 16.8868C97.7814 16.5583 98.5041 16.394 99.3583 16.394H101.297V19.4493H99.2269C98.1319 19.4493 97.2339 19.7559 96.533 20.3692C95.8322 20.9605 95.4817 21.8804 95.4817 23.1288V32.656H92.0979Z" fill="#312E81"/>
<path d="M110.665 33.1162C109.022 33.1162 107.587 32.7767 106.361 32.0978C105.134 31.3969 104.17 30.4223 103.47 29.1738C102.791 27.9036 102.451 26.4362 102.451 24.7716V24.3774C102.451 22.691 102.791 21.2236 103.47 19.9752C104.148 18.7049 105.09 17.7302 106.295 17.0513C107.521 16.3504 108.934 16 110.533 16C112.088 16 113.446 16.3504 114.607 17.0513C115.79 17.7302 116.71 18.683 117.367 19.9094C118.024 21.1359 118.352 22.5705 118.352 24.2131V25.4944H105.901C105.944 26.918 106.415 28.0569 107.313 28.911C108.234 29.7433 109.372 30.1594 110.73 30.1594C112.001 30.1594 112.953 29.8747 113.589 29.3053C114.246 28.7358 114.749 28.0788 115.1 27.3341L117.892 28.7796C117.586 29.3929 117.137 30.0389 116.545 30.718C115.976 31.3969 115.22 31.9663 114.279 32.4263C113.337 32.8862 112.132 33.1162 110.665 33.1162ZM105.933 22.899H114.903C114.815 21.6725 114.377 20.7198 113.589 20.0409C112.8 19.34 111.771 18.9896 110.5 18.9896C109.23 18.9896 108.19 19.34 107.379 20.0409C106.59 20.7198 106.109 21.6725 105.933 22.899Z" fill="#312E81"/>
<path d="M29.8944 16.7474C30.0887 16.4167 29.8503 16 29.4667 16H25.9631C25.6114 16 25.286 16.1862 25.1077 16.4894L16.0691 31.8679C15.8748 32.1986 16.1132 32.6154 16.4968 32.6154H20.0004C20.3521 32.6154 20.6775 32.4292 20.8557 32.126L29.8944 16.7474Z" fill="#312E81"/>
<path fill-rule="evenodd" clip-rule="evenodd" d="M28.1284 26.2221C28.1282 26.2129 28.1282 26.2036 28.1282 26.1944C28.1282 26.1852 28.1282 26.1759 28.1284 26.1667C28.1434 24.9811 29.1091 24.0244 30.2982 24.0244C31.4873 24.0244 32.4531 24.9809 32.468 26.1664L32.4683 31.5996C32.4683 32.1476 32.0241 32.5918 31.4762 32.5918H29.1206C28.5726 32.5918 28.1284 32.1476 28.1284 31.5997V26.2221Z" fill="#312E81"/>
<path d="M45.28 33V20.008H40.864V17.224H45.28V13.768C45.28 12.808 45.568 12.04 46.144 11.464C46.72 10.888 47.488 10.6 48.448 10.6H52.512V13.384H49.504C48.8853 13.384 48.576 13.704 48.576 14.344V17.224H53.12V20.008H48.576V33H45.28Z" fill="#312E81"/>
</g>
<defs>
<clipPath id="clip0_26_10">
<rect width="133" height="48" fill="white"/>
</clipPath>
</defs>
</svg>
